<svg width="158" height="29" viewBox="0 0 158 29" fill="none" xmlns="http://www.w3.org/2000/svg">
<g clip-path="url(#clip0_1429_8826)">
<path d="M125.964 13.6582H127.467L127.26 14.6403C127.463 14.288 127.706 14.0202 127.993 13.8368C128.281 13.6534 128.599 13.5641 128.954 13.5641C129.475 13.5641 129.866 13.7258 130.127 14.0515C130.387 14.3749 130.518 14.8044 130.518 15.3377C130.518 15.5742 130.491 15.8252 130.44 16.0858L130.431 16.1292C130.303 16.7494 130.052 17.2417 129.68 17.6061C129.306 17.9704 128.848 18.1538 128.302 18.1538C127.914 18.1538 127.595 18.0549 127.342 17.8594C127.089 17.664 126.924 17.3865 126.842 17.0341L126.833 17.1379L126.295 19.7006H124.688L125.964 13.663V13.6582ZM127.301 16.8073C127.429 16.9618 127.607 17.0366 127.839 17.0366C128.071 17.0366 128.264 16.9642 128.416 16.8194C128.57 16.6746 128.674 16.4671 128.732 16.1944L128.853 15.6128C128.877 15.5211 128.886 15.4222 128.886 15.3184C128.886 15.1109 128.831 14.9468 128.722 14.831C128.611 14.7151 128.457 14.6572 128.254 14.6572C128.034 14.6572 127.837 14.7248 127.663 14.8623C127.489 14.9975 127.354 15.1809 127.255 15.4101C127.156 15.6394 127.108 15.8855 127.108 16.1534V16.1703C127.108 16.4429 127.171 16.6553 127.298 16.8097L127.301 16.8073Z" fill="black"/>
<path d="M132.301 11.8774H133.908L132.595 18.0453H130.988L132.301 11.8774Z" fill="black"/>
<path d="M133.879 16.6625C133.937 16.385 134.08 16.1558 134.304 15.9772C134.531 15.7987 134.828 15.6828 135.199 15.6297L137.067 15.3788L137.11 15.1881C137.123 15.1182 137.127 15.0675 137.127 15.0313C137.127 14.8913 137.079 14.7851 136.98 14.7103C136.881 14.6355 136.736 14.5969 136.546 14.5969C136.355 14.5969 136.172 14.6476 136.015 14.7489C135.858 14.8503 135.742 15.0071 135.667 15.2219H134.294C134.405 14.6886 134.668 14.2784 135.088 13.9888C135.508 13.6992 136.034 13.5545 136.664 13.5545C137.294 13.5545 137.825 13.6727 138.179 13.9068C138.537 14.1408 138.713 14.4738 138.713 14.901C138.713 15.0047 138.698 15.123 138.669 15.2581L138.078 18.0477H136.601L136.765 17.2658C136.625 17.5313 136.413 17.746 136.124 17.9077C135.834 18.0694 135.503 18.1514 135.134 18.1514C134.729 18.1514 134.41 18.0477 134.179 17.8377C133.947 17.6302 133.831 17.3575 133.831 17.0221C133.831 16.9063 133.843 16.8025 133.865 16.7084L133.875 16.665L133.879 16.6625ZM135.426 16.8266C135.426 16.9473 135.467 17.0438 135.547 17.1138C135.629 17.1838 135.74 17.2176 135.885 17.2176C136.116 17.2176 136.319 17.1548 136.493 17.0269C136.666 16.899 136.777 16.7349 136.823 16.5322L136.91 16.1317L135.998 16.2716C135.829 16.3006 135.699 16.3537 135.607 16.4285C135.515 16.5033 135.46 16.5853 135.443 16.6722L135.433 16.7156C135.429 16.7398 135.424 16.776 135.424 16.8291L135.426 16.8266ZM136.589 11.8146C136.589 12.0125 136.63 12.1573 136.715 12.2538C136.799 12.3503 136.93 12.3962 137.11 12.3962C137.313 12.3962 137.48 12.3286 137.61 12.1959C137.74 12.0631 137.846 11.8629 137.926 11.5974H138.908C138.776 12.1428 138.541 12.5602 138.204 12.8522C137.868 13.1442 137.475 13.2914 137.021 13.2914C136.599 13.2914 136.263 13.1756 136.013 12.9439C135.764 12.7123 135.638 12.3962 135.638 11.998C135.638 11.887 135.653 11.7543 135.682 11.5974H136.604C136.592 11.7012 136.587 11.7736 136.587 11.8146H136.589Z" fill="black"/>
<path d="M140.144 17.8112C139.96 17.6543 139.871 17.4251 139.871 17.1259C139.871 17.0342 139.886 16.9087 139.915 16.7518L140.359 14.6669H139.463L139.681 13.6582H140.566L140.827 12.4155H142.434L142.173 13.6582H143.303L143.085 14.6669H141.956L141.531 16.6746C141.527 16.6988 141.522 16.7277 141.522 16.7615C141.522 16.9015 141.597 16.969 141.749 16.969H142.634L142.407 18.0453H140.947C140.595 18.0453 140.327 17.9681 140.144 17.8112ZM140.226 18.4458H141.86L140.807 20.3739H139.565L140.226 18.4458Z" fill="black"/>
<path d="M144.316 13.6582H145.923L144.994 18.0453H143.387L144.316 13.6582ZM144.664 11.9208H146.324L146.046 13.1804H144.396L144.666 11.9208H144.664Z" fill="black"/>
<path d="M125.964 23.4314H127.571L126.642 27.8184H125.035L125.964 23.4314ZM126.312 21.6939H127.972L127.694 22.9536H126.044L126.314 21.6939H126.312Z" fill="black"/>
<path d="M128.781 23.4313H130.284L130.084 24.3604C130.257 24.0419 130.494 23.7885 130.796 23.6003C131.097 23.412 131.423 23.3179 131.778 23.3179C132.178 23.3179 132.492 23.4289 132.721 23.6534C132.95 23.8754 133.064 24.1722 133.064 24.5438C133.064 24.6476 133.049 24.7779 133.02 24.9347L132.403 27.8184H130.796L131.351 25.2219C131.363 25.1398 131.367 25.0867 131.367 25.0578C131.367 24.9178 131.326 24.8117 131.242 24.7368C131.158 24.662 131.037 24.6234 130.882 24.6234C130.656 24.6234 130.463 24.6886 130.301 24.8189C130.139 24.9492 130.031 25.1278 129.98 25.3522L129.459 27.8184H127.852L128.781 23.4313Z" fill="black"/>
<path d="M134.207 27.5529C133.826 27.302 133.609 26.9424 133.556 26.4791H134.893C134.938 26.6408 135.047 26.7687 135.218 26.8604C135.39 26.9521 135.604 27.0003 135.865 27.0003C136.073 27.0003 136.249 26.969 136.391 26.9038C136.533 26.8411 136.615 26.7566 136.64 26.6528L136.649 26.6094C136.69 26.4357 136.587 26.3319 136.336 26.2957L135.414 26.1557C134.926 26.0809 134.562 25.941 134.318 25.7383C134.074 25.5356 133.954 25.2629 133.954 24.9226C133.954 24.7947 133.966 24.6765 133.988 24.5655L133.997 24.522C134.072 24.1504 134.294 23.8584 134.661 23.6413C135.028 23.4241 135.51 23.3155 136.106 23.3155C136.702 23.3155 137.212 23.4361 137.595 23.6799C137.979 23.9236 138.206 24.2856 138.268 24.7658H136.922C136.876 24.6089 136.775 24.4859 136.618 24.3917C136.461 24.2976 136.273 24.2518 136.053 24.2518C135.867 24.2518 135.708 24.2807 135.571 24.3387C135.435 24.3966 135.356 24.4738 135.332 24.5727L135.322 24.6162C135.288 24.7851 135.392 24.8864 135.636 24.9202L136.521 25.0505C137.523 25.2001 138.025 25.6152 138.025 26.2933C138.025 26.3922 138.01 26.5129 137.981 26.6577L137.972 26.7011C137.89 27.0896 137.658 27.3912 137.277 27.6036C136.895 27.816 136.396 27.9245 135.783 27.9245C135.112 27.9245 134.584 27.7991 134.202 27.5457L134.207 27.5529Z" fill="black"/>
<path d="M139.594 27.5843C139.41 27.4275 139.321 27.1982 139.321 26.899C139.321 26.8073 139.335 26.6818 139.364 26.525L139.808 24.44H138.913L139.13 23.4314H140.016L140.277 22.1886H141.884L141.623 23.4314H142.752L142.535 24.44H141.406L140.981 26.4478C140.976 26.4719 140.971 26.5008 140.971 26.5346C140.971 26.6746 141.046 26.7422 141.198 26.7422H142.084L141.857 27.8184H140.397C140.045 27.8184 139.777 27.7412 139.594 27.5843Z" fill="black"/>
<path d="M142.808 26.4357C142.865 26.1582 143.008 25.9289 143.232 25.7503C143.459 25.5718 143.756 25.4559 144.128 25.4029L145.995 25.1519L146.039 24.9613C146.051 24.8913 146.056 24.8406 146.056 24.8044C146.056 24.6644 146.007 24.5583 145.908 24.4835C145.809 24.4087 145.665 24.37 145.474 24.37C145.283 24.37 145.1 24.4207 144.943 24.5221C144.786 24.6234 144.67 24.7803 144.596 24.995H143.223C143.334 24.4617 143.597 24.0515 144.017 23.7619C144.436 23.4724 144.962 23.3276 145.592 23.3276C146.222 23.3276 146.753 23.4458 147.108 23.6799C147.465 23.914 147.641 24.247 147.641 24.6741C147.641 24.7779 147.627 24.8961 147.598 25.0312L147.006 27.8208H145.53L145.694 27.039C145.554 27.3044 145.341 27.5192 145.052 27.6808C144.762 27.8425 144.432 27.9246 144.062 27.9246C143.657 27.9246 143.338 27.8208 143.107 27.6109C142.875 27.4033 142.759 27.1307 142.759 26.7952C142.759 26.6794 142.771 26.5756 142.793 26.4815L142.803 26.4381L142.808 26.4357ZM144.354 26.5998C144.354 26.7204 144.395 26.8169 144.475 26.8869C144.557 26.9569 144.668 26.9907 144.813 26.9907C145.045 26.9907 145.247 26.9279 145.421 26.8001C145.595 26.6722 145.706 26.5081 145.752 26.3054L145.838 25.9048L144.926 26.0447C144.757 26.0737 144.627 26.1268 144.535 26.2016C144.444 26.2764 144.388 26.3585 144.371 26.4453L144.362 26.4888C144.357 26.5129 144.352 26.5491 144.352 26.6022L144.354 26.5998Z" fill="black"/>
<path d="M149.063 23.4313H150.566L150.366 24.3604C150.54 24.0419 150.776 23.7885 151.078 23.6003C151.379 23.412 151.705 23.3179 152.06 23.3179C152.461 23.3179 152.774 23.4289 153.003 23.6534C153.233 23.8754 153.346 24.1722 153.346 24.5438C153.346 24.6476 153.332 24.7779 153.303 24.9347L152.685 27.8184H151.078L151.633 25.2219C151.645 25.1398 151.65 25.0867 151.65 25.0578C151.65 24.9178 151.609 24.8117 151.524 24.7368C151.44 24.662 151.319 24.6234 151.165 24.6234C150.938 24.6234 150.745 24.6886 150.583 24.8189C150.421 24.9492 150.313 25.1278 150.262 25.3522L149.741 27.8184H148.134L149.063 23.4313Z" fill="black"/>
<path d="M154.722 27.5843C154.538 27.4275 154.449 27.1982 154.449 26.899C154.449 26.8073 154.463 26.6818 154.492 26.525L154.936 24.44H154.041L154.258 23.4314H155.144L155.404 22.1886H157.012L156.751 23.4314H157.88L157.663 24.44H156.534L156.109 26.4478C156.104 26.4719 156.099 26.5008 156.099 26.5346C156.099 26.6746 156.174 26.7422 156.326 26.7422H157.212L156.985 27.8184H155.525C155.173 27.8184 154.905 27.7412 154.722 27.5843Z" fill="black"/>
<path d="M68.5246 12.6496C68.5246 11.8919 68.3098 11.3151 67.8851 10.9194C67.458 10.5236 66.8185 10.3258 65.9643 10.3258C64.7626 10.3258 63.7346 10.6805 62.8827 11.3924C62.0285 12.1042 61.4759 13.0767 61.2225 14.3098V14.2616L58.3292 27.7774H49.5575L52.5932 13.5979C52.656 13.1563 52.6873 12.8378 52.6873 12.6496C52.6873 11.9232 52.4653 11.3537 52.0237 10.9435C51.5821 10.5333 50.9499 10.3282 50.127 10.3282C48.9253 10.3282 47.8973 10.6757 47.0455 11.3706C46.1912 12.0656 45.6217 13.0478 45.337 14.3098L42.4919 27.7774H33.7202L38.8409 3.82964H46.9972L45.9065 8.85617C46.8548 7.11872 48.1362 5.74325 49.7481 4.72974C51.3601 3.71864 53.1144 3.21189 55.0112 3.21189C56.9079 3.21189 58.4161 3.68486 59.6347 4.63321C60.8509 5.58157 61.5869 6.87741 61.8403 8.52075C62.7886 6.90878 64.07 5.62018 65.682 4.65493C67.2939 3.68968 69.0169 3.20947 70.8509 3.20947C73.0009 3.20947 74.6925 3.81034 75.9232 5.01207C77.1563 6.2138 77.7717 7.82577 77.7717 9.85037C77.7717 10.4512 77.6921 11.1776 77.5352 12.0318L74.1689 27.775H65.3972L68.4329 13.5955C68.4957 13.3735 68.527 13.0574 68.527 12.6472L68.5246 12.6496Z" fill="black"/>
<path d="M84.1739 3.82959H92.9456L87.8708 27.7774H79.0991L84.1739 3.82959Z" fill="black"/>
<path d="M93.5851 20.2364C93.9012 18.7185 94.6759 17.4709 95.909 16.4912C97.1421 15.5115 98.7709 14.8792 100.793 14.5945L110.989 13.219L111.225 12.1765C111.288 11.7977 111.319 11.5129 111.319 11.3223C111.319 10.5622 111.051 9.97819 110.513 9.56796C109.975 9.15773 109.186 8.9502 108.143 8.9502C107.101 8.9502 106.104 9.22771 105.25 9.78032C104.396 10.3329 103.764 11.1968 103.353 12.3648H95.8607C96.4616 9.45696 97.907 7.21276 100.199 5.63217C102.492 4.05157 105.361 3.26007 108.807 3.26007C112.253 3.26007 115.137 3.89955 117.082 5.18091C119.027 6.46228 119.999 8.27212 119.999 10.6104C119.999 11.1799 119.919 11.8291 119.763 12.5554L116.539 27.7774H108.476L109.377 23.5085C108.619 24.9637 107.448 26.134 105.868 27.0172C104.287 27.9028 102.485 28.3444 100.463 28.3444C98.2497 28.3444 96.5098 27.7749 95.2453 26.6384C93.9809 25.4994 93.3486 24.0153 93.3486 22.1813C93.3486 21.5491 93.4114 20.9796 93.5393 20.4753L93.5851 20.2388V20.2364ZM102.026 21.1364C102.026 21.8001 102.248 22.3213 102.69 22.7001C103.131 23.079 103.749 23.2696 104.538 23.2696C105.803 23.2696 106.908 22.9222 107.856 22.2272C108.805 21.5322 109.406 20.6321 109.659 19.5245L110.132 17.343L105.154 18.1007C104.237 18.26 103.525 18.5448 103.02 18.955C102.514 19.3652 102.214 19.8092 102.12 20.2822L102.072 20.5187C102.041 20.6466 102.024 20.8517 102.024 21.1364H102.026Z" fill="black"/>
<path d="M9.4326 13.1515C13.7424 14.0444 17.2752 12.1694 18.0257 8.54968C18.7762 4.93 16.2955 1.72056 11.8988 0.810812C7.67585 -0.0651501 4.33127 1.75917 3.5639 5.4633C2.81342 9.08298 5.12277 12.2586 9.4326 13.1515Z" fill="#A88FF5"/>
<path d="M12.678 22.9511C13.5709 18.6413 11.6959 15.1085 8.07619 14.358C4.45652 13.6075 1.24707 16.0882 0.337324 20.4849C-0.536225 24.7079 1.28809 28.0501 4.99223 28.8174C8.61191 29.5679 11.7876 27.2586 12.6804 22.9487L12.678 22.9511Z" fill="#669999"/>
<path d="M23.0111 15.8204C18.7013 14.9275 15.1685 16.8025 14.418 20.4222C13.6675 24.0419 16.1482 27.2513 20.5449 28.161C24.7679 29.0346 28.1101 27.2103 28.8774 23.5061C29.6279 19.8865 27.3186 16.7108 23.0087 15.818L23.0111 15.8204Z" fill="#B8753B"/>
<path d="M19.7508 6.00624C18.8579 10.3161 20.7329 13.8489 24.3526 14.5994C27.9723 15.3498 31.1817 12.8691 32.0915 8.47245C32.965 4.24949 31.1407 0.90732 27.4366 0.139948C23.8169 -0.610531 20.6412 1.69882 19.7484 6.00865L19.7508 6.00624Z" fill="#FF7859"/>
</g>
<defs>
<clipPath id="clip0_1429_8826">
<rect width="157.76" height="28.9574" fill="white" transform="translate(0.120117)"/>
</clipPath>
</defs>
</svg>
